<svg width="70" height="79" viewBox="0 0 70 79" fill="none" xmlns="http://www.w3.org/2000/svg">
<path d="M56.0753 16.709L52.3037 21.553C57.6497 25.6969 61.334 31.6192 62.6883 38.2463C64.0427 44.8733 62.9775 51.7663 59.6859 57.6755C56.3944 63.5846 51.0943 68.1186 44.7468 70.4555C38.3992 72.7923 31.4244 72.7772 25.087 70.413C18.7496 68.0488 13.4692 63.4919 10.2032 57.5687C6.93711 51.6454 5.9017 44.7479 7.28464 38.1267C8.66759 31.5056 12.3773 25.5992 17.7412 21.4784C23.1052 17.3577 29.7681 15.2954 36.522 15.6655L31.2154 21.2324L35.1517 24.9889L43.5284 16.1885L47.2811 12.2472L43.3511 8.50577L34.557 0.127777L30.8018 4.0691L36.5296 9.52536C27.7441 9.12529 19.1391 12.1054 12.4828 17.8534C5.82655 23.6013 1.62469 31.6805 0.740705 40.4305C-0.143281 49.1805 2.35776 57.9368 7.72986 64.9C13.102 71.8631 20.937 76.5041 29.625 77.8693C31.4177 78.1527 33.2299 78.2952 35.0448 78.2955C42.2099 78.2777 49.1908 76.0238 55.0136 71.8483C60.8363 67.6728 65.2105 61.7839 67.526 55.0032C69.8415 48.2225 69.9827 40.8881 67.93 34.0233C65.8773 27.1585 61.733 21.1056 56.0753 16.709Z" fill="#FF6875"/>
<path d="M38.3418 61.4326V57.8999C42.5308 57.4322 46.6054 54.7871 46.6054 49.7633C46.6054 42.938 40.259 42.156 35.6237 41.5852C32.6605 41.2307 30.3913 40.8196 30.3913 39.0243C30.3913 36.5275 33.9114 36.2584 35.4201 36.2584C37.6654 36.2584 40.0617 37.3145 40.8763 38.661L41.1127 39.0532L45.7643 36.8984L45.5343 36.4294C44.8439 35.0644 43.8237 33.8934 42.5662 33.0224C41.3086 32.1515 39.8536 31.6083 38.333 31.4421V28.3305H32.8893V31.427C27.814 32.1813 24.7992 34.9924 24.7992 39.023C24.7992 45.5944 30.7659 46.2607 35.1196 46.7498C38.9993 47.2074 40.8047 48.1654 40.8047 49.7671C40.8047 52.8183 36.5792 53.0559 35.2843 53.0559C32.4015 53.0559 29.6269 51.6177 28.8173 49.7067L28.6174 49.2353L23.5659 51.3763L23.7671 51.8477C25.2644 55.3541 28.4967 57.5504 32.8956 58.0696V61.4326H38.3418Z" fill="#FF6875"/>
</svg>
