<svg width="21" height="21" viewBox="0 0 21 21" fill="none" xmlns="http://www.w3.org/2000/svg">
<path fill-rule="evenodd" clip-rule="evenodd" d="M20.8104 16.9182C20.327 15.6298 19.5858 14.4539 18.6322 13.4624C17.6786 12.4708 16.5327 11.6846 15.2648 11.152C15.9543 10.5852 16.5111 9.87397 16.8959 9.06834C17.2807 8.26272 17.4841 7.38236 17.4918 6.48946C17.4669 4.92461 16.8634 3.42453 15.7979 2.27899C14.7323 1.13345 13.2804 0.423727 11.7226 0.28696C11.2124 0.223683 10.6965 0.223683 10.1863 0.28696C8.62937 0.424895 7.17864 1.13513 6.11415 2.28056C5.04967 3.42598 4.44685 4.9254 4.42206 6.48946C4.42948 7.38241 4.63279 8.26283 5.0176 9.0685C5.40242 9.87416 5.95939 10.5854 6.64909 11.152C5.3809 11.6844 4.23474 12.4705 3.28092 13.4621C2.32709 14.4536 1.5857 15.6297 1.10219 16.9182C0.965799 17.2949 0.925311 17.6997 0.984406 18.096C1.0435 18.4924 1.20032 18.8677 1.44067 19.1882C1.69008 19.5174 2.01278 19.7838 2.38311 19.9663C2.75344 20.1488 3.16122 20.2423 3.574 20.2394H18.3486C18.761 20.2422 19.1684 20.1486 19.5383 19.9661C19.9082 19.7836 20.2305 19.5172 20.4795 19.1882C20.7192 18.8673 20.875 18.4917 20.9328 18.0952C20.9906 17.6988 20.9485 17.2942 20.8104 16.9182ZM7.03628 6.48946C7.05355 5.54166 7.42368 4.63443 8.07425 3.94544C8.72481 3.25645 9.60893 2.8353 10.5535 2.76445C10.8227 2.73111 11.0949 2.73111 11.3641 2.76445C12.0745 2.87345 12.7388 3.18404 13.2782 3.65934C13.8176 4.13464 14.2095 4.75476 14.4075 5.44618C14.6054 6.1376 14.6012 6.87133 14.3952 7.5604C14.1891 8.24946 13.79 8.86497 13.2452 9.33396C12.7003 9.80295 12.0325 10.1057 11.3209 10.2065C10.6093 10.3072 9.88369 10.2016 9.23022 9.9022C8.57675 9.60282 8.02277 9.12222 7.63392 8.51735C7.24506 7.91248 7.03766 7.20871 7.03628 6.48946ZM3.57148 17.7394C4.16342 16.2633 5.18335 14.9983 6.49994 14.1073C7.81652 13.2163 9.36949 12.7402 10.9588 12.7402C12.5482 12.7402 14.1011 13.2163 15.4177 14.1073C16.7343 14.9983 17.7542 16.2633 18.3461 17.7394H3.574H3.57148Z" fill="#22262A"/>
</svg>
