<svg width="22" height="22" viewBox="0 0 22 22" fill="none" xmlns="http://www.w3.org/2000/svg">
<path fill-rule="evenodd" clip-rule="evenodd" d="M20.7067 19.4574L14.3987 13.1203C15.5304 11.5142 16.0175 9.54155 15.7635 7.59322C15.5095 5.64489 14.533 3.86306 13.0273 2.60073C11.5217 1.33839 9.59677 0.687665 7.63401 0.777487C5.67125 0.867309 3.81385 1.69108 2.42978 3.08565C1.04572 4.48023 0.23596 6.34383 0.160986 8.30721C0.0860119 10.2706 0.751283 12.1905 2.02497 13.6866C3.29866 15.1827 5.08784 16.1457 7.03803 16.385C8.98822 16.6242 10.9571 16.1222 12.5547 14.9784L18.8627 21.3164C18.984 21.4403 19.1288 21.5389 19.2886 21.6065C19.4485 21.674 19.6201 21.709 19.7936 21.7096C19.9671 21.7102 20.1389 21.6763 20.2992 21.6099C20.4595 21.5435 20.6049 21.4459 20.7271 21.3227C20.8494 21.1996 20.9459 21.0534 21.0111 20.8926C21.0763 20.7318 21.1089 20.5597 21.107 20.3863C21.1051 20.2128 21.0687 20.0414 21 19.8821C20.9313 19.7228 20.8316 19.5788 20.7067 19.4583V19.4574ZM8.01768 13.8153C6.97672 13.8211 5.95749 13.5176 5.08918 12.9435C4.22086 12.3694 3.54254 11.5504 3.1402 10.5903C2.73786 9.63022 2.62961 8.57228 2.82917 7.55062C3.02872 6.52896 3.52711 5.58957 4.26114 4.85146C4.99518 4.11335 5.93183 3.60977 6.95237 3.40456C7.97291 3.19936 9.03141 3.30179 9.99369 3.69881C10.956 4.09584 11.7787 4.7696 12.3576 5.63473C12.9366 6.49985 13.2457 7.51734 13.2457 8.55831C13.2457 9.94754 12.6958 11.2804 11.7162 12.2654C10.7366 13.2505 9.40689 13.8077 8.01768 13.8153Z" fill="#22262A"/>
</svg>
