<svg width="69" height="89" viewBox="0 0 69 89" fill="none" xmlns="http://www.w3.org/2000/svg">
<path d="M0.514648 70.401V88.9661H68.1823V70.401C68.1796 68.3312 67.3562 66.347 65.8926 64.8834C64.4291 63.4198 62.4448 62.5964 60.375 62.5938H8.32187C6.25208 62.5964 4.26783 63.4198 2.80427 64.8834C1.34071 66.347 0.51731 68.3312 0.514648 70.401H0.514648ZM5.71946 70.401C5.72046 69.7111 5.99496 69.0497 6.48279 68.5619C6.97062 68.0741 7.63197 67.7996 8.32187 67.7986H10.9243V83.765H5.71946V70.401ZM16.1303 67.7986H22.8601L34.3485 79.2869L45.8368 67.7986H52.5628V83.765H16.1303V67.7986ZM62.9774 70.401V83.7613H57.7726V67.7948H60.375C61.0656 67.7958 61.7275 68.0709 62.2154 68.5595C62.7034 69.0481 62.9774 69.7104 62.9774 70.401ZM38.4758 67.7986L34.3485 71.926L30.2211 67.7986H38.4758Z" fill="#FF6875"/>
<path d="M53.82 52.1791H57.7764V46.9743H60.3788C62.4486 46.9716 64.4328 46.1482 65.8964 44.6847C67.36 43.2211 68.1834 41.2368 68.186 39.167V33.9622C68.1857 24.9885 64.6206 16.3823 58.2749 10.0372C51.9292 3.69198 43.3229 0.127474 34.3491 0.127808C25.3753 0.128141 16.7692 3.69328 10.424 10.0389C4.07882 16.3846 0.514315 24.991 0.514648 33.9648L0.514648 39.1696C0.51731 41.2394 1.34071 43.2236 2.80427 44.6872C4.26783 46.1507 6.25208 46.9741 8.32187 46.9768H12.2645C13.7119 51.076 16.2718 54.6913 19.6577 57.4179C23.0436 60.1445 27.1217 61.8746 31.4352 62.4146C35.7488 62.9547 40.1275 62.2832 44.081 60.4754C48.0345 58.6676 51.4067 55.795 53.82 52.1791ZM60.3788 41.7682H57.6255C57.7224 40.9041 57.7711 40.0353 57.7714 39.1658V33.961C57.7711 33.0915 57.7224 32.2227 57.6255 31.3586H60.3738C61.0637 31.3596 61.725 31.6341 62.2129 32.1219C62.7007 32.6097 62.9752 33.2711 62.9762 33.961V39.1658C62.9765 39.8566 62.7026 40.5192 62.2146 41.0081C61.7267 41.497 61.0645 41.7722 60.3738 41.7732L60.3788 41.7682ZM34.3485 5.33576C40.6062 5.34381 46.6895 7.39837 51.6707 11.1861C56.6519 14.9738 60.2575 20.2867 61.9377 26.3147C61.4234 26.2099 60.8999 26.1573 60.375 26.1575H56.4312C54.8166 21.5908 51.826 17.6369 47.8711 14.8404C43.9162 12.0438 39.1916 10.5422 34.3478 10.5422C29.5041 10.5422 24.7795 12.0438 20.8246 14.8404C16.8697 17.6369 13.879 21.5908 12.2645 26.1575H8.32187C7.79701 26.1573 7.27347 26.2099 6.75917 26.3147C8.43935 20.2867 12.045 14.9738 17.0262 11.1861C22.0074 7.39837 28.0907 5.34381 34.3485 5.33576ZM49.2941 23.5602C47.6113 25.964 45.375 27.9278 42.7737 29.2858C40.1725 30.6437 37.2828 31.3559 34.3485 31.3623H16.3164C16.8375 27.7438 18.4355 24.3659 20.9026 21.668C23.3697 18.9701 26.5917 17.0771 30.1493 16.2354C33.707 15.3937 37.4356 15.6422 40.85 16.9486C44.2645 18.255 47.2068 20.5587 49.2941 23.5602ZM8.32187 41.7732C7.63197 41.7722 6.97062 41.4977 6.48279 41.0099C5.99496 40.5221 5.72046 39.8607 5.71946 39.1708V33.966C5.72046 33.2761 5.99496 32.6148 6.48279 32.1269C6.97062 31.6391 7.63197 31.3646 8.32187 31.3636H11.0751C10.9782 32.2277 10.9296 33.0965 10.9293 33.966V39.1708C10.9296 40.0403 10.9782 40.9091 11.0751 41.7732H8.32187ZM16.1291 39.1708V36.5684H34.3485C37.6439 36.5623 40.9013 35.8634 43.9092 34.5171C46.9171 33.1709 49.6084 31.2072 51.8085 28.7537C52.3142 30.4444 52.5705 32.2 52.5691 33.9648V39.1696C52.5719 41.8707 51.9705 44.5382 50.809 46.9768H42.1557L39.8651 44.6912C38.4007 46.1553 36.4148 46.9778 34.3441 46.9778C32.2733 46.9778 30.2874 46.1553 28.8231 44.6912L25.1432 48.371C27.3581 50.5858 30.2975 51.9275 33.4219 52.1496C36.5463 52.3718 39.6459 51.4596 42.1519 49.5804V52.1791H47.0801C44.5189 54.6881 41.2738 56.3852 37.7519 57.0573C34.23 57.7295 30.5881 57.3469 27.2828 55.9576C23.9774 54.5682 21.1559 52.2339 19.1719 49.2474C17.1879 46.2608 16.1298 42.755 16.1303 39.1696L16.1291 39.1708Z" fill="#FF6875"/>
</svg>
